PathFileType	4	(X/Y/Z)	C:/Users/opensim2020/Desktop/walking_exp_matlab/subject06_walking18_straight_03.trc	
DataRate	CameraRate	NumFrames	NumMarkers	Units	OrigDataRate	OrigDataStartFrame	OrigNumFrames	
100.00	100.00	6	47	mm	100.00	3315	309	
Frame#	Time	LFHD			RFHD			LBHD			RBHD			C7			T10			CLAV			STRN			RBAK			LSHO			LUPA			LELB			LFRM			LWRA			LWRB			LFIN			RSHO			RUPA			RELB			RFRM			RWRA			RWRB			RFIN			LASI			RASI			LPSI			RPSI			LTHI			LKNE			LTIB			LANK			LHEE			LTOE			RTHI			RKNE			RTIB			RANK			RHEE			RTOE			*39			*40			*41			*42			*43			*44			*45			*46			
		X1	Y1	Z1	X2	Y2	Z2	X3	Y3	Z3	X4	Y4	Z4	X5	Y5	Z5	X6	Y6	Z6	X7	Y7	Z7	X8	Y8	Z8	X9	Y9	Z9	X10	Y10	Z10	X11	Y11	Z11	X12	Y12	Z12	X13	Y13	Z13	X14	Y14	Z14	X15	Y15	Z15	X16	Y16	Z16	X17	Y17	Z17	X18	Y18	Z18	X19	Y19	Z19	X20	Y20	Z20	X21	Y21	Z21	X22	Y22	Z22	X23	Y23	Z23	X24	Y24	Z24	X25	Y25	Z25	X26	Y26	Z26	X27	Y27	Z27	X28	Y28	Z28	X29	Y29	Z29	X30	Y30	Z30	X31	Y31	Z31	X32	Y32	Z32	X33	Y33	Z33	X34	Y34	Z34	X35	Y35	Z35	X36	Y36	Z36	X37	Y37	Z37	X38	Y38	Z38	X39	Y39	Z39	X40	Y40	Z40	X41	Y41	Z41	X42	Y42	Z42	X43	Y43	Z43	X44	Y44	Z44	X45	Y45	Z45	X46	Y46	Z46	X47	Y47	Z47	

1	0.000	1348.86841	-689.52045	1671.60693	1479.86731	-701.34869	1660.70911	1336.63306	-821.85913	1614.86768	1465.84265	-831.81067	1609.28064	1391.17737	-826.97101	1460.49646	1395.01904	-867.98627	1132.13501	1406.97534	-720.20331	1380.26270	1408.29004	-685.67371	1203.77344	1462.36218	-912.99341	1292.95752	1239.97046	-751.38416	1411.57031	1159.77710	-734.09491	1213.66797	1140.26929	-726.09418	1102.16748	1129.99390	-658.88452	966.18121	1191.40369	-578.90320	876.53186	1141.55701	-624.07343	852.52551	1154.27942	-558.95636	790.99860	1559.85181	-783.06958	1415.88501	1646.34167	-836.41888	1221.20361	1661.93750	-830.52759	1099.50195	1680.47974	-805.64490	982.58838	1651.07861	-727.86285	852.27228	1688.85730	-783.64508	847.08722	1692.43164	-738.30341	776.14795	1320.00989	-678.66620	966.73352	1537.62207	-714.20667	980.07977	1324.10730	-838.50848	998.83929	1491.33374	-860.96881	1002.44318	1260.35010	-757.98065	654.41400	1281.45837	-778.62988	491.24301	1291.76489	-833.23694	239.50182	1342.42810	-852.15240	70.17464	1384.57861	-896.60126	58.92114	1352.79810	-708.47797	39.56989	1596.11938	-697.88147	654.64124	1575.91406	-651.95111	536.87256	1566.85559	-754.99890	298.15137	1522.27600	-822.06549	125.05661	1471.88306	-861.04449	109.60864	1542.83752	-688.86224	49.05460	1398.47791	-795.64954	1708.16272																					 
2	0.010	1348.50793	-685.21741	1671.22095	1479.48865	-696.66949	1660.54700	1336.03845	-816.89850	1614.60059	1465.24780	-827.08539	1609.03687	1390.56287	-821.98572	1460.31079	1394.45996	-863.31061	1131.97864	1406.64453	-715.36981	1380.12451	1407.96924	-680.86963	1203.59363	1461.53650	-908.33533	1292.73853	1239.47668	-746.02747	1411.34485	1159.16211	-727.88770	1213.49817	1139.56909	-718.73688	1102.00305	1129.88843	-649.08759	967.16504	1191.65417	-567.36499	879.61505	1142.38989	-612.47760	854.27325	1155.21338	-546.04303	794.21442	1559.35669	-778.59155	1415.60925	1645.53833	-832.28168	1220.89233	1661.12561	-826.48053	1099.15234	1679.64014	-801.74231	982.24896	1650.50208	-724.10443	851.91779	1688.05225	-779.88660	846.67938	1691.85876	-734.57623	775.76538	1319.49231	-674.28888	966.40546	1537.40845	-709.38812	980.21100	1323.70667	-834.14185	998.40448	1490.99048	-856.13135	1002.19098	1260.55420	-754.36658	654.04694	1281.72351	-775.67987	490.95477	1291.98523	-831.77710	239.43443	1342.57336	-851.90686	70.32697	1384.83594	-896.32715	59.09966	1352.89880	-708.43463	39.54155	1595.77161	-692.41907	655.01575	1575.44897	-645.45502	537.60248	1566.71179	-740.67041	295.05566	1521.81165	-801.51880	119.78555	1471.65149	-840.50244	103.35645	1540.91614	-665.52533	48.47518	1397.92786	-790.85071	1707.92908																					 
3	0.020	1348.21423	-679.88959	1671.09680	1479.15613	-692.00555	1660.31018	1335.55493	-811.99823	1614.29272	1464.75598	-822.37354	1608.73059	1390.04675	-817.07813	1460.09998	1393.93713	-858.65814	1131.78564	1406.30078	-710.69904	1379.84167	1407.57581	-676.21375	1203.33215	1460.87366	-903.65576	1292.57849	1239.12012	-740.73621	1411.19226	1158.69714	-721.59430	1213.31628	1139.03748	-711.51575	1101.91284	1129.76233	-639.87115	968.16034	1192.05481	-556.25751	882.57037	1143.25000	-601.25146	855.98334	1156.16431	-533.53394	797.28528	1558.92419	-774.13861	1415.34814	1644.76428	-828.13605	1220.57446	1660.43616	-822.27765	1098.87488	1678.87085	-797.77423	981.92255	1650.02148	-720.11896	851.51642	1687.40527	-776.06537	846.37671	1691.27490	-730.83838	775.31274	1318.85449	-669.83813	965.95435	1537.02710	-704.52521	980.50739	1323.40723	-829.59027	997.86700	1490.63025	-851.60681	1002.02405	1260.77625	-750.55420	653.71710	1282.04407	-772.62756	490.62012	1291.93103	-830.74731	239.43199	1342.70618	-851.66364	70.44965	1384.95203	-896.23584	59.34032	1352.99854	-708.52136	39.40972	1595.56702	-687.08270	655.19391	1575.09033	-639.19983	538.12128	1566.46106	-726.22211	292.01758	1521.55823	-781.23206	114.92141	1471.77112	-820.22754	97.41902	1538.74036	-642.72913	48.41461	1397.43799	-786.06732	1707.65112																					 
4	0.030	1347.97729	-674.95947	1670.82007	1478.96997	-687.26563	1659.99585	1335.16333	-807.07220	1613.92261	1464.32690	-817.64478	1608.37317	1389.55981	-812.15540	1459.83679	1393.59729	-854.15887	1131.57813	1405.93408	-705.95178	1379.47961	1407.17773	-671.54425	1203.01746	1460.22668	-898.93683	1292.36353	1238.87732	-735.41449	1410.98328	1158.36340	-715.29358	1213.17493	1138.66321	-704.25146	1101.83032	1129.97522	-630.86578	969.26202	1192.39014	-545.47687	885.50592	1144.12903	-589.97504	857.76440	1157.06946	-521.49939	800.33643	1558.58948	-769.57208	1415.05054	1644.10596	-823.88922	1220.20178	1659.73853	-818.10675	1098.47498	1678.30249	-793.61743	981.48108	1649.59436	-716.10327	851.00330	1686.79175	-772.23285	846.01385	1690.77173	-727.00360	774.83813	1318.35217	-665.34753	965.83118	1536.62720	-699.76587	980.61102	1323.16943	-825.26892	997.32843	1490.44275	-846.92291	1001.77429	1260.98181	-746.65228	653.28864	1282.29932	-769.55127	490.39023	1292.42200	-828.95056	239.52908	1342.82178	-851.44568	70.58719	1385.23718	-896.30511	59.61710	1353.03345	-708.43408	39.40269	1595.48389	-681.86469	655.26300	1574.76318	-633.02808	538.39539	1566.28259	-711.75806	289.19974	1521.52466	-761.11530	110.40467	1472.23071	-800.25458	91.85067	1536.13684	-620.18964	48.81973	1397.07019	-781.25232	1707.30994																					 
5	0.040	1347.84875	-670.04309	1670.47192	1478.83081	-682.54663	1659.63013	1334.85779	-802.14874	1613.56116	1464.03198	-812.87866	1608.00647	1389.18665	-807.30273	1459.54041	1393.16650	-849.39716	1131.22351	1405.67505	-701.19580	1379.11584	1406.77380	-666.81073	1202.69177	1459.77551	-894.25739	1292.11890	1238.62268	-730.21362	1410.67969	1158.25012	-708.99646	1212.98730	1138.47632	-697.16840	1101.76526	1130.23853	-621.64813	970.23413	1192.83386	-535.02112	888.40472	1145.01636	-579.23047	859.59705	1158.09485	-509.85898	803.24646	1558.25977	-765.00452	1414.70813	1643.51733	-819.56451	1219.78601	1659.14246	-813.83453	1098.04590	1677.64526	-789.65234	981.02271	1649.24951	-712.03247	850.45691	1686.20996	-768.24945	845.37646	1690.42786	-723.19513	774.28790	1317.83704	-661.31586	965.46185	1536.21069	-694.82129	980.67529	1322.81763	-820.22028	996.30426	1490.14099	-841.51147	1001.03900	1261.16162	-742.68402	652.88306	1282.51318	-766.40967	490.02695	1292.54944	-827.54095	239.54454	1342.89026	-851.23956	70.68664	1385.32532	-896.16266	59.80585	1353.02893	-708.40826	39.38902	1595.43945	-676.66040	655.19629	1574.35327	-627.06720	538.47339	1566.28284	-697.76062	286.72028	1521.74463	-741.32855	106.32282	1473.06091	-780.68213	86.71584	1533.35730	-598.10175	49.45282	1396.82776	-776.44745	1706.98511																					 
6	0.050	1347.78528	-665.18823	1670.08813	1478.74768	-677.77142	1659.21997	1334.60315	-797.08832	1613.18506	1463.76001	-808.10394	1607.56909	1388.90088	-802.47974	1459.19934	1393.00671	-844.97424	1131.05688	1405.70178	-696.31641	1378.81934	1406.47290	-662.07080	1202.29468	1459.36682	-889.57709	1291.87134	1238.50452	-725.10443	1410.44104	1158.12000	-702.71539	1212.85645	1138.41467	-690.15442	1101.73572	1130.56812	-612.82782	971.28577	1193.44092	-524.75824	891.15369	1145.94922	-568.48022	861.35297	1159.15796	-498.58649	806.09149	1558.04236	-760.38062	1414.28821	1643.01013	-815.15387	1219.34558	1658.52759	-809.66394	1097.61902	1677.09875	-785.52612	980.52991	1648.90369	-707.95477	849.86670	1685.67029	-764.31104	844.84863	1689.86475	-719.31458	773.59003	1317.21301	-656.34412	965.19452	1536.76270	-688.13202	981.50842	1322.81604	-816.08820	995.86932	1490.18945	-837.01678	1000.89288	1261.34509	-738.74854	652.40503	1282.68616	-763.21527	489.64243	1292.43506	-826.50690	239.54398	1343.00037	-851.06073	70.73741	1385.35693	-896.11865	60.01130	1353.01978	-708.37598	39.39089	1595.54309	-671.26617	654.98871	1573.84351	-621.12659	538.31018	1566.30090	-684.22113	284.59418	1522.15625	-721.93878	102.63781	1474.16309	-761.33313	81.89487	1530.70935	-576.68292	50.27942	1396.65869	-771.55890	1706.59314																					 
